<?xml version="1.0" encoding="UTF-8"?>
<!-- Generator: Adobe Illustrator 16.0.0, SVG Export Plug-In . SVG Version: 6.00 Build 0)  -->
<svg xmlns="http://www.w3.org/2000/svg" xmlns:xlink="http://www.w3.org/1999/xlink" version="1.1" id="Layer_1" x="0px" y="0px" width="151.599px" height="42.52px" viewBox="109.201 38.704 151.599 42.52" xml:space="preserve">
<polygon fill="#010101" points="165.863,81.223 165.863,57.854 184.245,57.854 184.245,59.736 168.473,59.736 168.473,68.172   182.707,68.172 182.707,70.054 168.473,70.054 168.473,79.341 184.633,79.341 184.633,81.223 "></polygon>
<polygon fill="#010101" points="189.281,81.223 189.281,53.605 191.892,53.605 191.892,65.461 208.243,65.461 208.243,53.605   210.853,53.605 210.853,81.223 208.243,81.223 208.243,67.685 191.892,67.685 191.892,81.223 "></polygon>
<polygon fill="#010101" points="225.516,69.113 233.842,57.854 236.877,57.854 226.86,71.027 226.86,81.223 224.249,81.223   224.249,71.192 214.386,57.854 217.374,57.854 "></polygon>
<path fill="#010101" d="M240.492,81.223V57.854h9.98c1.608,0,2.989,0.144,4.138,0.426c1.153,0.278,2.094,0.676,2.823,1.194  c0.728,0.52,1.26,1.142,1.595,1.866c0.334,0.726,0.504,1.521,0.504,2.39c0,0.823-0.132,1.533-0.387,2.126  c-0.259,0.596-0.595,1.093-1.005,1.49c-0.407,0.397-0.875,0.712-1.403,0.94c-0.521,0.229-1.063,0.389-1.624,0.475v0.066  c1.92,0.234,3.348,0.873,4.284,1.913c0.933,1.037,1.402,2.337,1.402,3.896c0,1.211-0.229,2.239-0.677,3.085  c-0.445,0.84-1.064,1.522-1.857,2.045c-0.793,0.52-1.748,0.892-2.862,1.12c-1.117,0.226-2.325,0.337-3.625,0.337L240.492,81.223  L240.492,81.223z M243.103,68.173h6.595c1.359,0,2.501-0.096,3.424-0.287c0.921-0.196,1.662-0.483,2.224-0.859  c0.561-0.381,0.963-0.847,1.209-1.399c0.244-0.549,0.367-1.182,0.367-1.897c0-0.736-0.143-1.358-0.425-1.866  c-0.286-0.511-0.732-0.924-1.345-1.235c-0.614-0.315-1.411-0.542-2.398-0.679c-0.986-0.141-2.194-0.213-3.626-0.213h-6.024V68.173z   M243.103,79.341h6.633c1.437,0,2.684-0.053,3.743-0.164c1.063-0.107,1.938-0.328,2.63-0.663c0.696-0.337,1.214-0.813,1.557-1.432  c0.349-0.616,0.522-1.432,0.522-2.446c0-0.976-0.193-1.761-0.58-2.356c-0.383-0.594-0.933-1.052-1.654-1.374  c-0.716-0.328-1.572-0.551-2.572-0.672c-0.993-0.118-2.105-0.18-3.335-0.18h-6.943V79.341L243.103,79.341z"></path>
<path fill="#010101" d="M142.829,68.681v12.542h-2.611V53.605h10.821c3.048,0,5.379,0.571,6.991,1.712  c1.61,1.136,2.417,2.983,2.417,5.541c0,1.735-0.355,3.113-1.063,4.139c-0.704,1.024-1.848,1.896-3.433,2.61  c0.817,0.278,1.456,0.687,1.915,1.229c0.464,0.538,0.812,1.149,1.044,1.838c0.232,0.691,0.379,1.418,0.445,2.186  c0.062,0.77,0.109,1.509,0.136,2.224c0.024,1.052,0.067,1.922,0.125,2.611c0.063,0.69,0.14,1.254,0.232,1.691  c0.089,0.434,0.198,0.771,0.328,1.016c0.128,0.24,0.283,0.424,0.464,0.552v0.27h-2.881c-0.286-0.456-0.485-1.095-0.6-1.915  c-0.116-0.816-0.208-1.675-0.271-2.571c-0.058-0.895-0.106-1.766-0.146-2.611c-0.038-0.844-0.111-1.532-0.213-2.07  c-0.155-0.738-0.406-1.333-0.753-1.779c-0.344-0.448-0.76-0.787-1.248-1.014c-0.483-0.233-1.03-0.388-1.635-0.465  c-0.599-0.077-1.218-0.116-1.857-0.116H142.829z M150.961,66.457c0.973,0,1.876-0.102,2.708-0.31  c0.832-0.205,1.552-0.532,2.166-0.978c0.619-0.449,1.105-1.02,1.461-1.711c0.36-0.688,0.541-1.521,0.541-2.494  c0-1.018-0.189-1.86-0.562-2.525c-0.366-0.669-0.868-1.194-1.498-1.575c-0.627-0.387-1.342-0.653-2.147-0.803  c-0.807-0.155-1.644-0.232-2.515-0.232h-8.286v10.627H150.961z"></path>
<path fill="#010101" d="M109.201,80.165c0,0,0.075-0.185,0.217-0.529c0.144-0.346,0.346-0.855,0.619-1.497  c0.271-0.642,0.601-1.422,0.979-2.317c0.096-0.224,0.192-0.454,0.293-0.692c0.11-0.233,0.223-0.474,0.339-0.721  c0.236-0.492,0.484-1.011,0.743-1.552c0.26-0.54,0.531-1.104,0.812-1.688c0.292-0.576,0.63-1.154,0.959-1.758  c0.334-0.603,0.678-1.221,1.029-1.852c0.393-0.609,0.792-1.231,1.2-1.865c0.208-0.313,0.401-0.641,0.627-0.949  c0.232-0.308,0.464-0.614,0.699-0.925c0.234-0.311,0.47-0.623,0.708-0.937l0.179-0.234l0.198-0.222l0.398-0.442  c0.536-0.587,1.052-1.203,1.653-1.739l0.875-0.833c0.294-0.275,0.611-0.523,0.915-0.787c0.309-0.256,0.615-0.52,0.928-0.769  c0.313-0.246,0.628-0.492,0.94-0.738c0.622-0.491,1.241-0.979,1.855-1.464c0.31-0.239,0.603-0.492,0.897-0.741  c0.295-0.248,0.59-0.494,0.882-0.739c0.298-0.238,0.569-0.502,0.845-0.758c0.274-0.257,0.547-0.511,0.818-0.764  c0.557-0.489,1.033-1.043,1.532-1.552c0.487-0.521,0.995-1.004,1.419-1.538c0.439-0.52,0.867-1.025,1.281-1.515  c0.207-0.245,0.417-0.481,0.611-0.722c0.188-0.247,0.372-0.488,0.551-0.726c0.725-0.947,1.389-1.815,1.978-2.585  c0.555-0.795,1.039-1.489,1.437-2.06c0.397-0.573,0.72-1.016,0.937-1.321c0.217-0.305,0.333-0.467,0.333-0.467  s-0.102,0.171-0.293,0.492c-0.192,0.32-0.468,0.794-0.834,1.388c-0.363,0.596-0.806,1.32-1.313,2.15  c-0.534,0.813-1.162,1.716-1.845,2.701c-0.171,0.246-0.346,0.498-0.523,0.754c-0.185,0.251-0.386,0.499-0.583,0.755  c-0.401,0.508-0.816,1.034-1.243,1.575c-0.412,0.553-0.911,1.058-1.388,1.603c-0.487,0.536-0.968,1.101-1.523,1.613  c-0.271,0.262-0.542,0.527-0.818,0.793c-0.274,0.265-0.546,0.54-0.845,0.788c-0.586,0.504-1.168,1.036-1.786,1.524  c-0.614,0.491-1.232,0.985-1.854,1.482c-0.31,0.246-0.619,0.493-0.93,0.74c-0.309,0.248-0.604,0.508-0.908,0.761  c-0.3,0.256-0.612,0.498-0.901,0.765l-0.856,0.805c-0.589,0.519-1.094,1.115-1.619,1.684c-0.54,0.555-0.999,1.173-1.47,1.77  c-0.235,0.298-0.469,0.595-0.7,0.891c-0.228,0.298-0.424,0.617-0.635,0.922c-0.415,0.614-0.823,1.218-1.223,1.809  c-0.366,0.613-0.726,1.214-1.075,1.799c-0.346,0.588-0.694,1.152-1.01,1.711c-0.304,0.566-0.596,1.113-0.877,1.638  c-0.282,0.524-0.553,1.027-0.81,1.506c-0.131,0.239-0.257,0.471-0.381,0.697c-0.115,0.231-0.227,0.455-0.334,0.674  c-0.432,0.87-0.808,1.628-1.118,2.253c-0.308,0.627-0.562,1.112-0.73,1.446C109.291,79.987,109.201,80.165,109.201,80.165"></path>
<path fill="#44A3DB" d="M123.701,47.071c-2.262,0-4.096-1.833-4.096-4.096c0-2.262,1.834-4.096,4.096-4.096  c2.262,0,4.096,1.833,4.096,4.096C127.797,45.238,125.963,47.071,123.701,47.071"></path>
<path fill="#47A1D9" d="M110.865,40.679c-0.593,0.289,9.322,8.23,7.675,21.764c-1.045,8.585-6.993,18.357-6.212,18.773  c0.648,0.346,9.097-14.765,9.097-14.765s5.099,15.093,6.067,14.765c0.721-0.243-3.624-12.843-2.774-21.031  c0.867-8.355,12.76-20.519,11.989-21.457c-0.517-0.628-6.121,10.397-13.688,10.41C117.601,49.147,111.863,40.194,110.865,40.679z"></path>
<path fill="#FFFFFF" d="M130.323,51.799c-0.958,0-1.734-0.776-1.734-1.733c0-0.958,0.777-1.734,1.734-1.734  c0.958,0,1.734,0.776,1.734,1.734C132.056,51.023,131.281,51.799,130.323,51.799"></path>
<path fill="#FFFFFF" d="M134.701,46.397c-0.798,0-1.445-0.647-1.445-1.445c0-0.798,0.646-1.445,1.445-1.445  c0.798,0,1.444,0.646,1.444,1.445C136.145,45.75,135.499,46.397,134.701,46.397"></path>
<path fill="#010101" d="M130.323,52.224c-1.191,0-2.159-0.968-2.159-2.159c0-1.19,0.968-2.158,2.159-2.158  c1.19,0,2.159,0.968,2.159,2.158C132.481,51.256,131.513,52.224,130.323,52.224 M130.323,48.756c-0.722,0-1.31,0.587-1.31,1.309  c0,0.722,0.588,1.31,1.31,1.31s1.309-0.587,1.309-1.31C131.632,49.343,131.044,48.756,130.323,48.756"></path>
<path fill="#010101" d="M134.701,46.822c-1.032,0-1.87-0.839-1.87-1.87s0.838-1.869,1.87-1.869c1.031,0,1.869,0.838,1.869,1.869  S135.732,46.822,134.701,46.822 M134.701,43.932c-0.562,0-1.02,0.458-1.02,1.02c0,0.563,0.458,1.021,1.02,1.021  s1.019-0.458,1.019-1.021C135.72,44.39,135.263,43.932,134.701,43.932"></path>
</svg>
